<?xml version="1.0" encoding="utf-8"?>
<!-- Generator: Adobe Illustrator 22.0.0, SVG Export Plug-In . SVG Version: 6.00 Build 0)  -->
<svg version="1.1" xmlns="http://www.w3.org/2000/svg" xmlns:xlink="http://www.w3.org/1999/xlink" x="0px" y="0px"
	 viewBox="0 0 500 500" style="enable-background:new 0 0 500 500;" xml:space="preserve">
<style type="text/css">
	.st0{display:none;}
	.st1{display:inline;fill:#19368F;}
	.st2{fill:#280144;}
	.st3{fill:#D9AEFF;}
	.st4{fill:#5700A3;}
	.st5{fill:url(#SVGID_1_);}
	.st6{fill:#640387;}
	.st7{clip-path:url(#SVGID_3_);}
	.st8{fill:#735E5C;}
	.st9{fill:#FFD2BA;}
	.st10{fill:#FFB1A4;}
	.st11{fill:#E05787;}
	.st12{fill:#FFFFFF;}
	.st13{fill:#FF7AA9;}
	.st14{fill:#97A2C7;}
	.st15{fill:#F1D4FF;}
	.st16{fill:#55995E;}
	.st17{fill:#FFCD05;}
	.st18{fill:#FF1A75;}
	.st19{fill:#577FFF;}
	.st20{fill:url(#SVGID_4_);}
	.st21{fill:url(#SVGID_5_);}
	.st22{fill:url(#SVGID_6_);}
	.st23{fill:url(#SVGID_7_);}
	.st24{fill:url(#SVGID_8_);}
	.st25{clip-path:url(#SVGID_10_);}
	.st26{fill:#2E333D;}
	.st27{fill:#FFB86C;}
	.st28{enable-background:new    ;}
	.st29{fill:url(#SVGID_11_);}
	.st30{fill:#919FBF;}
	.st31{fill:url(#SVGID_12_);}
	.st32{fill:url(#SVGID_13_);}
	.st33{fill:#C89BE0;}
	.st34{fill:#E29CFF;}
	.st35{fill:#5C362F;}
	.st36{fill:#7D4A41;}
	.st37{fill:#1F2336;}
	.st38{fill:#161926;}
	.st39{fill:#AD6A43;}
	.st40{fill:#FFDEC9;}
	.st41{fill:url(#SVGID_14_);}
	.st42{fill:url(#SVGID_15_);}
	.st43{fill:url(#SVGID_16_);}
	.st44{fill:url(#SVGID_17_);}
</style>
<g id="BACKGROUND" class="st0">
	<rect class="st1" width="500" height="500"/>
</g>
<g id="OBJECTS">
	<g>
		<g>
			<path class="st2" d="M204.3,77.6c-0.5-0.3-1.1-0.2-1.9,0.2l-111,64.1c-1.5,0.8-2.6,2.9-2.6,4.5v183c0,0.8,0.3,1.4,0.8,1.7
				c2,1.2,4.1,2.4,6.1,3.5c-0.5-0.3-0.8-0.9-0.8-1.7V150c0-1.7,1.2-3.7,2.6-4.5l111-64.1c0.7-0.4,1.4-0.5,1.9-0.2
				C208.4,80,206.4,78.8,204.3,77.6z"/>
			<path class="st3" d="M207.7,80.8l-111,64.1c-1.5,0.8-2.6,2.9-2.6,4.5v183c0,0.8,0.3,1.4,0.8,1.7c0.3,0.2,0.6,0.3,0.8,0.5
				c-0.4-0.3-0.7-0.8-0.7-1.7V150c0-1.7,1.2-3.7,2.6-4.5l111-64.1c0.7-0.4,1.4-0.5,1.9-0.2c-0.3-0.2-0.6-0.4-0.9-0.5
				C209.1,80.4,208.4,80.4,207.7,80.8z"/>
			<g>
				<path class="st4" d="M208.6,81.3c1.5-0.8,2.6-0.2,2.6,1.5v183c0,1.7-1.2,3.7-2.6,4.5l-111,64.1c-1.5,0.8-2.6,0.2-2.6-1.5V150
					c0-1.7,1.2-3.7,2.6-4.5L208.6,81.3z"/>
			</g>
		</g>
		<linearGradient id="SVGID_1_" gradientUnits="userSpaceOnUse" x1="154.4826" y1="133.984" x2="154.0321" y2="285.0961">
			<stop  offset="0" style="stop-color:#FFFFFF"/>
			<stop  offset="1" style="stop-color:#DFE8F0"/>
		</linearGradient>
		<path class="st5" d="M208,90.6c0-1.5-1.1-2.2-2.4-1.4l-102.6,59.2c-1.3,0.8-2.4,2.7-2.4,4.2l0.1,169c0,1.5,1.1,2.2,2.4,1.4
			l102.6-59.2c1.3-0.8,2.4-2.7,2.4-4.2L208,90.6z"/>
		<g>
			<g>
				<polygon class="st6" points="143.1,143.5 110,162.6 110,210.6 143.1,191.5 				"/>
			</g>
			<g>
				<defs>
					<polygon id="SVGID_2_" points="143.1,143.5 110,162.6 110,210.6 143.1,191.5 					"/>
				</defs>
				<clipPath id="SVGID_3_">
					<use xlink:href="#SVGID_2_"  style="overflow:visible;"/>
				</clipPath>
				<g class="st7">
					<polygon class="st8" points="117.7,199.2 135.2,189.1 135.2,163.7 117.7,173.8 					"/>
					<g id="XMLID_2_">
						<g>
							<path class="st9" d="M106.2,246.5c-0.4,2-1.4,6-1.4,6.7c0,0.7,0.4,2.1,0.7,2.5c0.2,0.4,2,1.8,2.2,1.9c0.1,0,0.5-0.6,0.5-1.3
								c0-0.3-0.1-0.6-0.3-0.9c-0.5-0.7-0.9-0.6-1-1.2c-0.1-0.4,0.6-3.3,0.6-3.3l0,0c0.2,0.1,0.4,0.3,0.4,0.5c0.2,0.5,0,1.5,0.1,2
								c0.1,0.5,0.6,0.8,0.9,0.6c0.3-0.2,0.5-1.6,0.7-2.6c0.1-0.4,0.2-0.8,0.3-1.2c0.1-0.5,0.2-1,0.2-1.6c0-1.1-0.7-2.6-0.3-4.6
								c0.3-2,3.7-12.2,4.4-15.3c0.7-3.1,0.8-5.7,1.3-7.3c0.4-1.6,2.3-6,2.8-10.6c0.7-5.7-0.8-12.1-3.9-11.7c0,0-1.3,6.1-1.9,11.4
								c-0.7,5.3-1.6,9.9-2.2,12.5c-0.6,2.6-1.6,4.9-2.3,11.2C107.1,240.5,106.6,244.5,106.2,246.5z"/>
						</g>
					</g>
					<g id="XMLID_1_">
						<g>
							<path class="st9" d="M147,222.9c0.4,1.6,1.4,4.4,1.4,5.1c0,0.7-0.4,2.6-0.7,3.3c-0.2,0.7-2,4.1-2.2,4.5
								c-0.1,0.2-0.5,0-0.5-0.7c0-0.3,0.1-0.8,0.3-1.3c0.5-1.3,0.9-1.6,1-2.4c0.1-0.5-0.6-2.6-0.6-2.6l0,0c-0.2,0.4-0.4,0.7-0.4,1
								c-0.2,0.7,0,1.5-0.1,2.1c-0.1,0.6-0.6,1.5-0.9,1.6c-0.3,0.1-0.5-1.1-0.7-1.8c-0.1-0.3-0.2-0.6-0.3-0.9
								c-0.1-0.4-0.2-0.8-0.2-1.4c0-1.2,0.7-3.4,0.3-4.9c-0.3-1.6-3.7-8-4.4-10.3c-0.7-2.3-0.8-4.8-1.3-5.9
								c-0.4-1.1-2.3-3.3-2.8-7.3c-0.7-4.9,0.8-13,3.9-16.2c0,0,1.3,4.6,1.9,9.2c0.7,4.5,1.6,8,2.2,9.9c0.6,1.9,1.6,3,2.3,8.5
								C146.2,217.9,146.6,221.3,147,222.9z"/>
						</g>
					</g>
					<g>
						<path class="st9" d="M130.4,177.6c0,0,0,4.2,0,4.9c0,0.5,0.1,0.9,0.7,1.1c0.4,0.1,7.7,0.2,7.9,1.2c0.1,0.3,0,2,0,3
							c0,1,0.1,3.9,0.4,6.4c0.3,2.5-1.8,6.5-2.1,7.2c-0.2,0.7-0.7,4.7-1,11.1c0.1,2.9,1.1,4.3,2.2,7.7c-2.9,2.8-7.4,6.2-11.8,8.8
							c-4.5,2.5-8.9,4.4-11.8,4.9c1-4.6,2-7.1,2.2-10.2c-0.3-6.1-0.8-9.5-1-10c-0.2-0.4-2.3-2.1-2.1-4.8c0.3-2.8,0.4-5.8,0.4-6.8
							c0-1-0.1-2.7,0-3c0.2-1.3,7.4-9.7,7.9-10.3c0.6-0.8,0.7-1.4,0.7-1.9c0-0.7,0-4.9,0-4.9L130.4,177.6z"/>
					</g>
					<path class="st10" d="M122.8,182l7.5-4.4c0,0,0,4.2,0,4.9c0,0.5,0.1,0.9,0.7,1.1c-4.4,1.7-7,1.4-8.3,1
						C122.8,183.3,122.8,182,122.8,182z"/>
					<g>
						<path class="st10" d="M133.1,173.1c2-0.3,3.7-5.1,3.1-6.3c-0.6-1.1-2,0.9-2,0.9L133.1,173.1z"/>
					</g>
					<g>
						<path class="st10" d="M119.8,180.7c-2,2-3.7-0.9-3.1-2.8c0.6-1.9,2-1.4,2-1.4L119.8,180.7z"/>
					</g>
					<path class="st9" d="M126.5,159.2L126.5,159.2L126.5,159.2c4.1-2.4,8.5-3,8.5,5c0,3.3-0.8,7.4-1.9,10.4
						c-1.5,4.1-5.1,7.5-6.6,8.4l0,0c-1.5,0.9-5.1,1.6-6.6-0.8c-1.1-1.7-1.9-4.9-1.9-8.2C117.9,166.1,122.4,161.6,126.5,159.2z"/>
					<path class="st11" d="M113.9,199.3l-5.1,17.6c0,0,3.5,2.4,8.2,1.6v-20.8L113.9,199.3z"/>
					<path class="st11" d="M139.3,184.6l5.1,11.6c0,0-3.5,6.4-8.2,11.1v-20.8L139.3,184.6z"/>
					<polygon class="st12" points="130.4,182.5 126.6,188.9 130.6,189.6 132.7,183.7 					"/>
					<polygon class="st12" points="122.8,186.8 126.6,188.9 122.7,194.1 120.5,190.7 					"/>
					<path class="st8" d="M130.6,162.8c0,0-5.4,8.2-14,15.8c0,0,0-4.8,0-7.7c0-3,2.6-8.3,6.1-11.4c3.5-3.2,7.4-4.4,9.2-3.7
						c2-0.5,4.6,1.3,4.7,4.9c0.1,3.6-1.4,6.4-1.4,6.4S131.6,166.9,130.6,162.8z"/>
					<path class="st13" d="M113.6,210.5c-0.2-1.6,0.2-10.1,0.3-11.2c0.1-1.1,7.5-9.6,7.5-9.6c2.3-0.1,5.3-0.8,5.3-0.8s3-2.7,5.3-5.3
						c0,0,7.4-0.1,7.5,0.9c0.1,1,0.4,9.2,0.3,10.9c-0.2,1.7-1.8,5.6-2,6.5c-0.1,0.9-0.8,9.1-0.7,10.6l2.3,7.5c0,0-4.9,5.7-12.7,10.2
						c-7.7,4.5-12.7,4.5-12.7,4.5l2.3-10.1c0.1-1.7-0.5-9-0.7-9.8C115.4,214,113.7,212.1,113.6,210.5z"/>
				</g>
			</g>
		</g>
		<g>
			<polygon class="st14" points="198.5,251.2 110.1,302.2 110.1,304.9 198.5,253.9 			"/>
			<polygon class="st14" points="198.5,243.2 110.1,294.2 110.1,296.9 198.5,245.9 			"/>
			<polygon class="st14" points="126.6,263.3 198.5,221.8 198.5,219.2 126.6,260.6 			"/>
			<polygon class="st14" points="198.5,235.2 110.1,286.2 110.1,288.9 198.5,237.9 			"/>
			<polygon class="st14" points="198.5,227.2 110.1,278.2 110.1,280.9 198.5,229.9 			"/>
			<polygon class="st14" points="198.5,204.4 110.1,255.4 110.1,258.1 198.5,207.1 			"/>
			<polygon class="st14" points="198.5,196.4 110.1,247.4 110.1,250.1 198.5,199.1 			"/>
			<polygon class="st14" points="126.6,216.5 198.5,175.1 198.5,172.4 126.6,213.8 			"/>
			<polygon class="st14" points="198.5,188.4 110.1,239.4 110.1,242.1 198.5,191.1 			"/>
			<polygon class="st14" points="198.5,180.4 110.1,231.4 110.1,234.1 198.5,183.1 			"/>
			<polygon class="st14" points="198.4,130.9 198.4,125.5 147.1,155.1 147.1,160.5 			"/>
			<polygon class="st14" points="147.1,173 147.1,175.7 178,157.9 178,155.2 			"/>
			<polygon class="st14" points="178,172.1 178,169.4 147.1,187.2 147.2,189.9 			"/>
			<polygon class="st14" points="147.1,180.1 147.1,182.8 178,165 178,162.3 			"/>
			<polygon class="st14" points="147.1,165.9 147.1,168.6 178,150.8 178,148.1 			"/>
		</g>
	</g>
	<g>
		<path class="st15" d="M292.1,69.5c0-1.2-0.9-1.7-1.9-1.1l-66.4,38.4c-1.1,0.6-1.9,2.1-1.9,3.3v47.4c0,1.2,0.9,1.7,1.9,1.1
			l66.4-38.4c1.1-0.6,1.9-2.1,1.9-3.3V69.5z"/>
		<g>
			<polygon class="st16" points="249.3,109.3 251.2,107.1 253.1,107 252.9,104.8 254.3,102.1 252.2,102.9 251.2,101.3 250.2,104.1 
				248.1,105.7 249.5,106.7 			"/>
			<polygon class="st17" points="260.3,125.7 259.3,124.2 258.2,126.9 256.2,128.6 257.6,129.6 257.4,132.1 259.3,130 261.2,129.9 
				261,127.6 262.4,125 			"/>
			<polygon class="st18" points="257.3,123 259.3,120.8 261.2,120.7 260.9,118.5 262.4,115.8 260.3,116.5 259.2,115 258.2,117.7 
				256.1,119.4 257.6,120.4 			"/>
			<polygon class="st19" points="257.3,113.8 259.2,111.7 261.2,111.6 260.9,109.3 262.3,106.7 260.3,107.4 259.2,105.9 
				258.2,108.6 256.1,110.3 257.5,111.2 			"/>
			<polygon class="st16" points="257.3,104.7 259.2,102.5 261.1,102.4 260.9,100.1 262.3,97.5 260.2,98.2 259.2,96.7 258.2,99.4 
				256.1,101.1 257.5,102.1 			"/>
			<polygon class="st14" points="265.3,100 267.2,97.9 269.1,97.8 268.9,95.5 270.3,92.9 268.2,93.6 267.2,92.1 266.2,94.8 
				264.1,96.5 265.5,97.5 			"/>
			<polygon class="st19" points="273.3,104.6 275.2,102.5 277.2,102.3 276.9,100.1 278.3,97.4 276.3,98.2 275.2,96.6 274.2,99.4 
				272.1,101 273.5,102 			"/>
			<polygon class="st14" points="273.3,95.4 275.2,93.3 277.1,93.2 276.9,90.9 278.3,88.3 276.2,89 275.2,87.5 274.1,90.2 
				272.1,91.9 273.5,92.9 			"/>
			<polygon class="st14" points="286.4,111.1 284.3,111.8 283.3,110.3 282.2,113.1 280.1,114.7 281.6,115.7 281.3,118.3 
				283.3,116.1 285.2,116 285,113.8 			"/>
			<polygon class="st14" points="281.3,109.1 283.2,107 285.2,106.9 284.9,104.6 286.4,102 284.3,102.7 283.2,101.2 282.2,103.9 
				280.1,105.6 281.6,106.6 			"/>
			<polygon class="st19" points="281.3,100 283.2,97.8 285.2,97.7 284.9,95.4 286.3,92.8 284.3,93.5 283.2,92 282.2,94.7 
				280.1,96.4 281.5,97.4 			"/>
			<polygon class="st14" points="281.3,90.8 283.2,88.7 285.1,88.6 284.9,86.3 286.3,83.7 284.2,84.4 283.2,82.9 282.1,85.6 
				280.1,87.3 281.5,88.2 			"/>
			<polygon class="st14" points="229.7,144 229.7,146.1 244.8,137.4 244.8,135.3 			"/>
			<polygon class="st14" points="244.8,126.1 229.7,134.8 229.7,137 244.8,128.3 			"/>
			<polygon class="st14" points="244.7,117 229.7,125.7 229.7,127.8 244.7,119.1 			"/>
			<polygon class="st14" points="244.7,107.8 229.6,116.5 229.6,118.7 244.7,110 			"/>
			<polygon class="st17" points="252.3,130.3 251.3,128.8 250.2,131.5 248.2,133.2 249.6,134.2 249.4,136.7 251.3,134.6 
				253.2,134.5 253,132.2 254.4,129.6 			"/>
			<polygon class="st18" points="249.3,127.6 251.3,125.5 253.2,125.4 252.9,123.1 254.4,120.4 252.3,121.2 251.3,119.6 
				250.2,122.4 248.1,124 249.6,125 			"/>
			<polygon class="st19" points="249.3,118.4 251.2,116.3 253.2,116.2 252.9,113.9 254.4,111.3 252.3,112 251.2,110.5 250.2,113.2 
				248.1,114.9 249.5,115.9 			"/>
			<polygon class="st17" points="268.3,121.1 267.3,119.6 266.2,122.3 264.2,124 265.6,124.9 265.4,127.5 267.3,125.4 269.2,125.3 
				269,123 270.4,120.4 			"/>
			<polygon class="st18" points="265.3,118.3 267.3,116.2 269.2,116.1 268.9,113.8 270.4,111.2 268.3,111.9 267.2,110.4 
				266.2,113.1 264.1,114.8 265.6,115.8 			"/>
			<polygon class="st19" points="265.3,109.2 267.2,107.1 269.2,107 268.9,104.7 270.3,102.1 268.3,102.8 267.2,101.3 266.2,104 
				264.1,105.7 265.5,106.6 			"/>
			<polygon class="st18" points="273.3,113.7 275.3,111.6 277.2,111.5 276.9,109.2 278.4,106.6 276.3,107.3 275.2,105.8 
				274.2,108.5 272.1,110.2 273.6,111.2 			"/>
			<polygon class="st14" points="276.3,116.5 275.3,114.9 274.2,117.7 272.1,119.4 273.6,120.3 273.4,122.9 275.3,120.8 
				277.2,120.7 277,118.4 278.4,115.8 			"/>
		</g>
	</g>
	<g>
		<path class="st15" d="M226.3,169.8L304,125c2.5-1.4,4.5-0.3,4.5,2.6v69.7c0,2.8-2,6.3-4.5,7.7l-77.6,44.8
			c-2.5,1.4-4.5,0.3-4.5-2.6v-69.7C221.9,174.7,223.9,171.3,226.3,169.8z"/>
		<g>
			<linearGradient id="SVGID_4_" gradientUnits="userSpaceOnUse" x1="264.6516" y1="195.4621" x2="280.1496" y2="195.4621">
				<stop  offset="5.376340e-03" style="stop-color:#FED905"/>
				<stop  offset="1" style="stop-color:#FEC405"/>
			</linearGradient>
			<polygon class="st20" points="280.1,189.8 264.7,198.7 264.7,201.2 280.1,192.2 			"/>
			<linearGradient id="SVGID_5_" gradientUnits="userSpaceOnUse" x1="264.6623" y1="195.8195" x2="292.1301" y2="195.8195">
				<stop  offset="5.376340e-03" style="stop-color:#FED905"/>
				<stop  offset="1" style="stop-color:#FEC405"/>
			</linearGradient>
			<polygon class="st21" points="292.1,186.7 264.7,202.5 264.7,205 292.1,189.1 			"/>
			<linearGradient id="SVGID_6_" gradientUnits="userSpaceOnUse" x1="264.6838" y1="205.5946" x2="284.7268" y2="205.5946">
				<stop  offset="5.376340e-03" style="stop-color:#FED905"/>
				<stop  offset="1" style="stop-color:#FEC405"/>
			</linearGradient>
			<polygon class="st22" points="264.7,210.2 264.7,212.6 284.7,201 284.7,198.6 			"/>
			<linearGradient id="SVGID_7_" gradientUnits="userSpaceOnUse" x1="264.674" y1="200.5578" x2="288.9377" y2="200.5578">
				<stop  offset="5.376340e-03" style="stop-color:#FED905"/>
				<stop  offset="1" style="stop-color:#FEC405"/>
			</linearGradient>
			<polygon class="st23" points="264.7,206.3 264.7,208.8 288.9,194.8 288.9,192.3 			"/>
		</g>
		<g>
			<polygon class="st14" points="280.1,157.6 264.7,166.5 264.7,168.9 280.1,160 			"/>
			<polygon class="st14" points="292.1,154.5 264.7,170.3 264.7,172.7 292.1,156.9 			"/>
			<polygon class="st14" points="264.7,177.9 264.7,180.4 284.7,168.8 284.7,166.4 			"/>
			<polygon class="st14" points="264.7,174.1 264.7,176.6 288.9,162.6 288.9,160.1 			"/>
		</g>
		<g>
			<path class="st14" d="M244.8,208.8l0.9,1.7c-2.5,3-4.3,7.1-4.3,10.6c0,1.5,0.3,2.8,0.9,3.7c-0.6,0.7-1.2,1.5-1.9,2.4
				c-0.8-1.2-1.2-2.8-1.2-4.8C239.2,217.9,241.5,212.6,244.8,208.8z"/>
			<linearGradient id="SVGID_8_" gradientUnits="userSpaceOnUse" x1="240.8303" y1="216.517" x2="259.6175" y2="216.517">
				<stop  offset="5.376340e-03" style="stop-color:#FED905"/>
				<stop  offset="1" style="stop-color:#FEC405"/>
			</linearGradient>
			<path class="st24" d="M249.5,225.7c4.4-2.5,8-8.7,8-13.8c0-5.1-3.6-7.1-8-4.6c-1.1,0.6-2.1,1.5-3.1,2.5l-0.9-1.7
				c1.2-1.3,2.6-2.4,4-3.3c5.6-3.2,10.2-0.6,10.2,5.8c0,6.5-4.5,14.3-10.1,17.6c-3.6,2.1-6.8,1.7-8.6-0.5c0.6-0.8,1.2-1.6,1.9-2.4
				C244.2,227.1,246.6,227.3,249.5,225.7z"/>
		</g>
		<g>
			<g>
				<polygon class="st6" points="259.2,164.9 239.6,176.1 239.7,204.5 259.2,193.2 				"/>
			</g>
			<g>
				<defs>
					<polygon id="SVGID_9_" points="259.2,164.9 239.6,176.1 239.7,204.5 259.2,193.2 					"/>
				</defs>
				<clipPath id="SVGID_10_">
					<use xlink:href="#SVGID_9_"  style="overflow:visible;"/>
				</clipPath>
				<g class="st25">
					<polygon class="st8" points="244.2,197.8 254.6,191.8 254.6,176.8 244.2,182.8 					"/>
					<g id="XMLID_4_">
						<g>
							<path class="st9" d="M237.4,225.7c-0.2,1.2-0.8,3.6-0.8,4c0,0.4,0.3,1.2,0.4,1.5c0.1,0.2,1.2,1.1,1.3,1.1
								c0.1,0,0.3-0.3,0.3-0.8c0-0.2-0.1-0.4-0.2-0.6c-0.3-0.4-0.5-0.4-0.6-0.7c-0.1-0.2,0.4-2,0.4-2l0,0c0.1,0.1,0.2,0.2,0.2,0.3
								c0.1,0.3,0,0.9,0.1,1.2c0,0.3,0.4,0.5,0.5,0.3c0.2-0.1,0.3-1,0.4-1.5c0.1-0.3,0.1-0.5,0.2-0.7c0.1-0.3,0.1-0.6,0.1-0.9
								c0-0.7-0.4-1.5-0.2-2.7c0.2-1.2,2.2-7.2,2.6-9.1c0.4-1.8,0.5-3.4,0.7-4.3c0.3-0.9,1.4-3.5,1.7-6.3c0.4-3.4-0.5-7.1-2.3-6.9
								c0,0-0.7,3.6-1.1,6.8c-0.4,3.2-1,5.9-1.3,7.4c-0.4,1.5-1,2.9-1.4,6.6C237.9,222.2,237.6,224.6,237.4,225.7z"/>
						</g>
					</g>
					<g id="XMLID_3_">
						<g>
							<path class="st9" d="M261.5,211.8c0.2,0.9,0.8,2.6,0.8,3c0,0.4-0.3,1.5-0.4,2c-0.1,0.4-1.2,2.4-1.3,2.6
								c-0.1,0.1-0.3,0-0.3-0.4c0-0.2,0.1-0.4,0.2-0.8c0.3-0.8,0.5-1,0.6-1.4c0.1-0.3-0.4-1.5-0.4-1.5l0,0c-0.1,0.2-0.2,0.4-0.2,0.6
								c-0.1,0.4,0,0.9-0.1,1.2c0,0.4-0.4,0.9-0.5,1c-0.2,0.1-0.3-0.6-0.4-1c-0.1-0.2-0.1-0.3-0.2-0.5c-0.1-0.2-0.1-0.4-0.1-0.8
								c0-0.7,0.4-2,0.2-2.9c-0.2-0.9-2.2-4.7-2.6-6.1c-0.4-1.4-0.5-2.9-0.7-3.5c-0.3-0.6-1.4-2-1.7-4.3c-0.4-2.9,0.5-7.7,2.3-9.6
								c0,0,0.7,2.7,1.1,5.4c0.4,2.7,1,4.8,1.3,5.9c0.4,1.1,1,1.7,1.4,5C261,208.8,261.3,210.9,261.5,211.8z"/>
						</g>
					</g>
					<g>
						<path class="st9" d="M251.7,185c0,0,0,2.5,0,2.9c0,0.3,0.1,0.6,0.4,0.6c0.2,0,4.5,0.1,4.6,0.7c0,0.2,0,1.2,0,1.8
							c0,0.6,0.1,2.3,0.2,3.8c0.1,1.5-1.1,3.9-1.2,4.3c-0.1,0.4-0.4,2.8-0.6,6.6c0.1,1.7,0.7,2.5,1.3,4.5c-1.7,1.7-4.4,3.6-7,5.2
							c-2.6,1.5-5.3,2.6-7,2.9c0.6-2.7,1.2-4.2,1.3-6c-0.2-3.6-0.4-5.6-0.6-5.9c-0.1-0.3-1.4-1.2-1.2-2.9c0.1-1.6,0.2-3.4,0.2-4
							c0-0.6,0-1.6,0-1.8c0.1-0.7,4.4-5.7,4.6-6.1c0.4-0.5,0.4-0.8,0.4-1.1c0-0.4,0-2.9,0-2.9L251.7,185z"/>
					</g>
					<path class="st10" d="M247.2,187.6l4.5-2.6c0,0,0,2.5,0,2.9c0,0.3,0.1,0.6,0.4,0.6c-2.6,1-4.1,0.8-4.9,0.6
						C247.2,188.4,247.2,187.6,247.2,187.6z"/>
					<g>
						<path class="st10" d="M253.3,182.3c1.2-0.2,2.2-3,1.8-3.7c-0.4-0.7-1.2,0.5-1.2,0.5L253.3,182.3z"/>
					</g>
					<g>
						<path class="st10" d="M245.5,186.9c-1.2,1.2-2.2-0.5-1.8-1.6c0.4-1.1,1.2-0.8,1.2-0.8L245.5,186.9z"/>
					</g>
					<path class="st9" d="M249.4,174.1L249.4,174.1L249.4,174.1c2.4-1.4,5-1.8,5,2.9c0,2-0.5,4.4-1.1,6.1c-0.9,2.4-3,4.4-3.9,5l0,0
						c-0.9,0.5-3,0.9-3.9-0.5c-0.6-1-1.1-2.9-1.1-4.9C244.3,178.2,247,175.5,249.4,174.1z"/>
					<path class="st11" d="M241.9,197.8l-3,10.4c0,0,2,1.4,4.9,0.9v-12.3L241.9,197.8z"/>
					<path class="st11" d="M257,189.1l3,6.9c0,0-2,3.8-4.9,6.6v-12.3L257,189.1z"/>
					<polygon class="st12" points="251.7,187.9 249.5,191.7 251.8,192.1 253.1,188.6 					"/>
					<polygon class="st12" points="247.2,190.5 249.5,191.7 247.1,194.8 245.8,192.8 					"/>
					<path class="st8" d="M251.8,176.2c0,0-3.2,4.8-8.3,9.4c0,0,0-2.8,0-4.6c0-1.7,1.5-4.9,3.6-6.8c2.1-1.9,4.4-2.6,5.4-2.2
						c1.2-0.3,2.7,0.8,2.8,2.9c0,2.1-0.8,3.8-0.8,3.8S252.4,178.7,251.8,176.2z"/>
					<path class="st13" d="M241.8,204.5c-0.1-0.9,0.1-6,0.2-6.6c0.1-0.7,4.4-5.7,4.4-5.7c1.3,0,3.1-0.5,3.1-0.5s1.8-1.6,3.1-3.1
						c0,0,4.4,0,4.4,0.5c0.1,0.6,0.3,5.4,0.2,6.5c-0.1,1-1.1,3.3-1.2,3.9c-0.1,0.6-0.5,5.4-0.4,6.3l1.4,4.4c0,0-2.9,3.4-7.5,6
						c-4.6,2.6-7.5,2.6-7.5,2.6l1.4-6c0.1-1-0.3-5.3-0.4-5.8C242.9,206.5,241.9,205.4,241.8,204.5z"/>
				</g>
			</g>
		</g>
	</g>
	<g>
		<g>
			<g>
				<polygon class="st26" points="328.6,201.5 333.1,202.8 328.9,211.7 324.3,210.4 				"/>
			</g>
			<g>
				<path class="st27" d="M334.7,201.5c1.3-0.7,2.5-1,3.6-0.7l15.1,4.4c2.7,0.8,3.2,4.8,1.2,9c-1.2,2.5-3,4.5-4.8,5.5
					c-1.3,0.7-2.5,1-3.6,0.7l-15.1-4.4c-1.5-0.4-2.4-1.9-2.4-3.9l0.2-0.4l4.2-9l0.1-0.2C333.7,202.2,334.2,201.8,334.7,201.5z"/>
			</g>
		</g>
		<g class="st28">
			<linearGradient id="SVGID_11_" gradientUnits="userSpaceOnUse" x1="296.3297" y1="222.9234" x2="327.5167" y2="183.201">
				<stop  offset="0" style="stop-color:#31394A"/>
				<stop  offset="0.5054" style="stop-color:#414857"/>
				<stop  offset="1" style="stop-color:#31394A"/>
			</linearGradient>
			<path class="st29" d="M324.2,173.9l-4.6-2.7c7.4,4.3,8.4,17.4,2,31c-4.2,8.8-10.6,15.9-17.1,19.7c-4.5,2.6-9,3.6-12.8,2.5
				c-0.9-0.2-1.6-0.6-2.4-1l4.6,2.7c0.7,0.4,1.5,0.8,2.4,1c3.9,1.1,8.4,0.1,12.8-2.5c6.5-3.8,12.9-10.9,17.1-19.7
				C332.7,191.2,331.6,178.1,324.2,173.9z"/>
			<g>
				<path class="st30" d="M324.2,173.9l-4.6-2.7c0.3,0.2,0.6,0.4,0.9,0.6l3.2,1.9c7.4,4.3,8.4,17.4,2,31
					c-4.2,8.8-10.6,15.9-17.1,19.7c-4.5,2.6-9,3.6-12.8,2.5c-0.3-0.1-0.6-0.2-1-0.3c0.5,0.2,0.9,0.4,1.4,0.5
					c3.9,1.1,8.4,0.1,12.8-2.5c6.5-3.8,12.9-10.9,17.1-19.7C332.7,191.2,331.6,178.1,324.2,173.9z"/>
				<path class="st30" d="M290.2,223.8c-0.3-0.1-0.6-0.3-1-0.5l0.5,0.3C289.9,223.7,290.1,223.7,290.2,223.8z"/>
			</g>
			<linearGradient id="SVGID_12_" gradientUnits="userSpaceOnUse" x1="288.6709" y1="149.2956" x2="297.4252" y2="175.7779">
				<stop  offset="0" style="stop-color:#414857"/>
				<stop  offset="1" style="stop-color:#31394A"/>
			</linearGradient>
			<path class="st31" d="M323.1,165.6c-0.1,0-0.2-0.1-0.2-0.1c-0.9-0.5-1.9-0.9-2.9-1.2c-4.7-1.3-10.2-0.1-15.7,3
				c-7.9,4.6-15.7,13.2-20.8,24c-7.8,16.6-6.6,32.5,2.4,37.7l4.6,2.7c-9-5.2-10.2-21.1-2.4-37.7c5.1-10.8,12.9-19.4,20.8-24
				c5.5-3.2,11-4.4,15.7-3c1,0.3,2,0.7,2.9,1.2C326.1,167.3,324.6,166.5,323.1,165.6z"/>
			<path class="st30" d="M325.9,167.2c-0.5-0.2-1-0.4-1.5-0.5c-4.7-1.3-10.2-0.1-15.7,3c-7.9,4.6-15.7,13.2-20.8,24
				c-7.2,15.2-6.7,29.8,0.3,36.1c-6.7-6.5-7-20.9,0-35.9c5.1-10.8,12.9-19.4,20.8-24c5.5-3.2,11-4.4,15.7-3c1,0.3,2,0.7,2.9,1.2
				C327,167.9,326.4,167.6,325.9,167.2z"/>
			<linearGradient id="SVGID_13_" gradientUnits="userSpaceOnUse" x1="332.6018" y1="219.5806" x2="302.8376" y2="194.7406">
				<stop  offset="0" style="stop-color:#414857"/>
				<stop  offset="1" style="stop-color:#586175"/>
			</linearGradient>
			<path class="st32" d="M324.6,167c-4.7-1.3-10.2-0.1-15.7,3c-7.9,4.6-15.7,13.2-20.8,24c-8.6,18.2-6.2,35.6,5.3,38.9
				c4.7,1.3,10.2,0.1,15.7-3c7.9-4.6,15.7-13.2,20.8-24C338.6,187.7,336.2,170.3,324.6,167z M326.2,204.8
				c-4.2,8.8-10.6,15.9-17.1,19.7c-4.5,2.6-9,3.6-12.8,2.5c-9.5-2.7-11.4-17-4.3-32c4.2-8.9,10.6-15.9,17.1-19.7
				c4.5-2.6,9-3.6,12.9-2.5C331.3,175.6,333.3,189.9,326.2,204.8z"/>
		</g>
	</g>
	<g>
		<g>
			<path class="st6" d="M398,349.4l-84-48.5c-4.1-2.4-9.2-3.8-14.5-4.2v-0.2h-29.7v8.8v109.1v9.2h26.6c0,0,0,0,0,0h3.1v-0.1
				c5.6-0.4,11-1.8,15.2-4.3l83.5-48.5C408.2,364.7,408.2,355.2,398,349.4z"/>
			<path class="st33" d="M379.4,360.2c0-0.2,0-0.3,0-0.5v-9.4h-6.1c-0.5-0.3-1-0.7-1.6-1l-84-48.5c-10.2-5.9-26.6-5.9-36.7,0
				l-83.5,48.5c-0.6,0.3-1.1,0.7-1.6,1h-6v9.9h0c0.2,3.7,2.7,7.5,7.6,10.3l84,48.5c10.2,5.9,26.6,5.9,36.7,0l83.5-48.5
				C376.8,367.7,379.3,364,379.4,360.2L379.4,360.2L379.4,360.2z"/>
			<path class="st34" d="M379.4,358.8c0-0.2,0-0.3,0-0.5v-9.4h-6.1c-0.5-0.3-1-0.7-1.6-1l-84-48.5c-10.2-5.9-26.6-5.9-36.7,0
				l-83.5,48.5c-0.6,0.3-1.1,0.7-1.6,1h-6v9.9h0c0.2,3.7,2.7,7.5,7.6,10.3l84,48.5c10.2,5.9,26.6,5.9,36.7,0l83.5-48.5
				C376.8,366.3,379.3,362.6,379.4,358.8L379.4,358.8L379.4,358.8z"/>
			<path class="st12" d="M371.8,347.9l-84-48.5c-10.2-5.9-26.6-5.9-36.7,0l-83.5,48.5c-0.6,0.3-1.1,0.7-1.6,1h-6v1.8h0
				c0.2,3.7,2.7,7.5,7.6,10.3l84,48.5c10.2,5.9,26.6,5.9,36.7,0l83.5-48.5c4.9-2.9,7.4-6.6,7.5-10.3h0v-0.1v-0.5v-1.3h-6.1
				C372.9,348.6,372.3,348.2,371.8,347.9z"/>
			<path class="st15" d="M371.8,338.3l-84-48.5c-10.2-5.9-26.6-5.9-36.7,0l-83.5,48.5c-10.1,5.9-10,15.4,0.1,21.2l84,48.5
				c10.2,5.9,26.6,5.9,36.7,0l83.5-48.5C382,353.7,381.9,344.2,371.8,338.3z"/>
			<path class="st34" d="M274.9,364.4h88.7l8.3-4.8c8.2-4.8,9.7-11.9,4.5-17.6H274.9V364.4z"/>
		</g>
		<g>
			<path class="st35" d="M299.8,345.4c0,0,0.6,5.7,0.7,7c0.1,1.4,0.1,2-0.5,2.5c-0.9,0.7-3.4,2-5,2.1c-1.6,0.1-3.3-0.8-4.9-1.6
				c-1.6-0.8-3.1-1.8-4.6-2.1c-1.5-0.4-2.8-0.2-4.5-1.5c-1.6-1.3-4.3-5.1-4.7-5.6c-0.4-0.5-0.3-1.3,0.2-1.9c0.4-0.6,2.7-1.6,3.3-1.7
				c0.6-0.1,4,1.1,4.8,1.2c0.9,0.1,4.9,0.2,6.5,0.1C292.7,343.9,299.8,345.4,299.8,345.4z"/>
			<path class="st36" d="M299.8,344.4c0,0,0.6,5.7,0.7,7c0.1,1.4,0.1,2-0.5,2.5c-0.9,0.7-3.4,2-5,2.1c-1.6,0.1-3.3-0.8-4.9-1.6
				c-1.6-0.8-3.1-1.8-4.6-2.1c-1.5-0.4-2.8-0.2-4.5-1.5c-1.6-1.3-4.1-4.8-4.5-5.3c-0.4-0.5-0.3-1.3,0.2-1.9c0.4-0.6,2.7-1.6,3.3-1.7
				c0.6-0.1,3.7,0.8,4.6,0.9c0.9,0.1,4.9,0.2,6.5,0.1C292.7,342.9,299.8,344.4,299.8,344.4z"/>
			<path class="st37" d="M267.8,246.7c0,0,9.9,39.7,11.1,45.8c1.3,6.1,6.5,29.3,8.7,38c2.2,8.7,1.6,11.6,1.6,12.4
				c0,0.8-0.4,2.4-0.3,2.8c0.1,0.4,2.2,3.2,5,2.9c2.7-0.3,4.9-1.1,6.4-2.6c0,0-1.5-5.6-1.6-6.7c-0.1-1.1-1.1-29.6-1.7-34.3
				c-0.8-6.3-4.7-11.6-5-16.5c-0.4-4.9-0.3-24.9,0-28.9c0.3-4,0.5-10.8-1.5-17.6l-22.8,2.8L267.8,246.7z"/>
			<polygon class="st38" points="283.2,264 282.2,306.9 277,284.5 			"/>
			<path class="st35" d="M279.8,352.7c0,0,0.6,5.7,0.7,7c0.1,1.4,0.1,2-0.5,2.5c-0.9,0.7-3.4,2-5,2.1c-1.6,0.1-3.3-0.8-4.9-1.6
				c-1.6-0.8-3.1-1.8-4.6-2.1c-1.5-0.4-2.8-0.2-4.5-1.5c-1.6-1.3-4.3-5.1-4.7-5.6c-0.4-0.5-0.3-1.3,0.2-1.9c0.4-0.6,2.7-1.6,3.3-1.7
				c0.6-0.1,4,1.1,4.8,1.2c0.9,0.1,4.9,0.2,6.5,0.1C272.7,351.2,279.8,352.7,279.8,352.7z"/>
			<path class="st36" d="M279.8,351.6c0,0,0.6,5.7,0.7,7c0.1,1.4,0.1,2-0.5,2.5c-0.9,0.7-3.4,2-5,2.1c-1.6,0.1-3.3-0.8-4.9-1.6
				c-1.6-0.8-3.1-1.8-4.6-2.1c-1.5-0.4-2.8-0.2-4.5-1.5c-1.6-1.3-4.1-4.8-4.5-5.3c-0.4-0.5-0.3-1.3,0.2-1.9c0.4-0.6,2.7-1.6,3.3-1.7
				c0.6-0.1,3.7,0.8,4.6,0.9c0.9,0.1,4.9,0.2,6.5,0.1C272.7,350.1,279.8,351.6,279.8,351.6z"/>
			<path class="st37" d="M260.4,250.7c0,0,2.7,41.3,3.2,47.6s4.3,29.8,5.4,38.7s0.9,11.1,0.8,11.9s-0.7,2.3-0.6,2.8s1.8,3.5,4.6,3.5
				s5-0.5,6.6-1.8c0,0-0.8-5.7-0.8-6.8s1.3-29.1,1.1-33.8c-0.2-4.8-1.8-12.5-1.5-17.4c0.3-4.9,2.8-24.8,3.6-28.7
				c0.8-3.9,1.8-10.7,0.7-17.7h-23V250.7z"/>
			<path class="st39" d="M259.9,248.3c0,0,0,2.9,0,3.4c2.5,2.3,8.6,3.1,17.9,0.7c11.5-3,13.8-6.8,13.8-6.8l-0.6-3L259.9,248.3z"/>
			<rect x="266.1" y="248.8" class="st37" width="2.1" height="5.6"/>
			<rect x="281.1" y="246.9" class="st37" width="2.1" height="5.6"/>
			<rect x="289.3" y="243.2" class="st37" width="1.4" height="5.6"/>
			<path class="st40" d="M264,164.6c0,0-2.4,5.9-2.8,7.8c-0.4,1.9,0,2.9-0.3,4.5c-0.3,1.6-0.3,2.5,0,4.5s0.7,3.3,0.8,4.7
				c0.1,1.4,0.1,1.9,0.9,2.2c0.8,0.3,2.2,0.1,4.3-0.2c0,0,0.2,2.6,0.2,5.8c10,0.6,12.8-2.9,12.8-2.9s-0.9-4.5-0.5-5.9
				c0.3-1.4,3.9-6.3,4.3-10.4c0.3-4.1-1.2-10-5.2-11.7C273.9,161.2,267.2,161,264,164.6z"/>
			<linearGradient id="SVGID_14_" gradientUnits="userSpaceOnUse" x1="263.3683" y1="165.4485" x2="265.6493" y2="168.167">
				<stop  offset="0" style="stop-color:#FFD3BF"/>
				<stop  offset="1" style="stop-color:#FFB7A8"/>
			</linearGradient>
			<path class="st41" d="M265.3,171.3v-7.9c-0.5,0.3-0.9,0.7-1.3,1.1c0,0-0.8,2-1.6,4C263.1,169.5,264.1,170.5,265.3,171.3z"/>
			<linearGradient id="SVGID_15_" gradientUnits="userSpaceOnUse" x1="272.6535" y1="189.5588" x2="271.1954" y2="178.7672">
				<stop  offset="0" style="stop-color:#FFD3BF"/>
				<stop  offset="1" style="stop-color:#FFB7A8"/>
			</linearGradient>
			<path class="st42" d="M280.1,183.2h-10.8c0,0-1.8,2.6-5.1,4.1c-0.4,0.4,0.3,0.4,1.2,0.4c0.9-0.1,1.5-0.1,2.4-0.3
				c0,0,0.8,3.3,1.1,6.5c8.5,0.1,10.9-2.9,10.9-2.9s-0.9-4.5-0.5-5.9C279.3,184.7,279.7,184.1,280.1,183.2z"/>
			<path class="st36" d="M266.4,180.5c0,0-0.8-0.1-0.8-1.1s0-3.9,0-4.2c0-0.3-0.3-0.7-0.4-0.9c-0.1-0.2-0.7-0.7-0.7-0.8
				s0.6-2.1,0.6-2.2c0-0.1-1.2-1.5-2-3.4c-0.8-1.9-1.1-3.7-1.3-5.5c1.2-0.3,3-0.2,3-0.2c-0.6-0.7-0.3-2.3-0.3-2.3s2.8,0.9,6.3,0.6
				c3.5-0.2,6.4-0.9,9.3,0.5s3.9,3.8,3.9,8.8c1.5,2.8,1.5,5.6,1.2,6s-4.8,6.8-6.2,9.9c-2.1,1.2-6.8,0.9-8.1,0.9
				c-0.5-1.2-1.8-3.5-1.8-3.5s0.7-0.8,1.1-1.9c0.4-1.2,0.2-2.4-1.1-3s-1.9-0.1-2,0.1C266.8,179.4,266.4,180.5,266.4,180.5z"/>
			<path class="st2" d="M266.2,193.4c0,0-8,7.6-8.8,8.6c-0.8,1-1,1.3-1.2,2.5s3.6,31.6,3.8,33.5c0.2,1.9-1.9,9.8-1.7,10.2
				c0.2,0.3,1.1,1.5,2.8,2.2c1.7,0.7,7.8,1.8,16.7-0.7c8.9-2.4,12.5-5,13.2-6c0.7-1.1,1.3-4.4,1-5.3c-0.3-0.9-2.5-6.2-2.5-7
				c-0.1-0.8,1.4-21.5,1.7-25.5c0.3-4-0.2-12.3-1-14.4s-4.3-6.3-10.6-4.7C279.8,186.7,270.4,191.1,266.2,193.4z"/>
			<path class="st4" d="M265.3,211.8l-7.6,6.6c0.8,6.4,1.6,13.4,2,17C265.7,225.5,265.3,211.8,265.3,211.8z"/>
			<path class="st4" d="M280.8,187.5c0,0-0.8-2.1-0.9-2.3s-0.6-0.3-1.6,0s-3.2,1.4-6.6,3.6c-2.8,1.8-5.6,4.5-5.6,4.5
				s3.3-0.4,6.9-1.7c3.6-1.3,7.6-3.3,7.6-3.4S280.8,187.5,280.8,187.5z"/>
			<g>
				<g>
					<path class="st40" d="M241,210.3c0,0-0.8-7.9-0.8-8.4c-0.1-0.5-0.5-1.4-1-2.3c-0.5-0.8-1.7-2.7-2.4-4c-0.7-1.3-1.6-3.3-1.8-3.2
						c-0.2,0.1-0.9,0.9-0.6,2.5c0.3,1.6,0.9,2.1,1.2,2.8c0.3,0.7,1,2.2,1,2.2s-0.7-0.2-1.1-0.1c-0.4,0.1-3.3,1.3-3.6,1.6
						c-0.3,0.3-0.3,0.7-0.4,1.4c-0.1,0.7,0,2.4,0,3c0,0.6-0.3,0.8-0.1,1c0.2,0.1,1.1,0.4,1.3-0.4c0.3,1.5,0.1,2.9,0.7,3.6
						c0.6,0.6,3,2.6,3,2.6L241,210.3z"/>
					
						<linearGradient id="SVGID_16_" gradientUnits="userSpaceOnUse" x1="214.4731" y1="203.2834" x2="219.7219" y2="200.5674" gradientTransform="matrix(-1 0 0 1 451.4121 0)">
						<stop  offset="0" style="stop-color:#FFD3BF"/>
						<stop  offset="1" style="stop-color:#FFB7A8"/>
					</linearGradient>
					<path class="st43" d="M232.4,202.2c-0.4,0.4-1,1.4-1,1.5c0-0.3,0-0.7,0-0.9c0.1-0.7,0.2-1.1,0.4-1.4c0.3-0.3,3.2-1.5,3.6-1.6
						c0.4-0.1,1.1,0.1,1.1,0.1s1.1,0.7,1,0.9c0,0.2-3,1.2-3.5,1.4C233.6,202.3,232.8,201.8,232.4,202.2z"/>
					
						<linearGradient id="SVGID_17_" gradientUnits="userSpaceOnUse" x1="218.1417" y1="205.4373" x2="219.5737" y2="204.6962" gradientTransform="matrix(-1 0 0 1 451.4121 0)">
						<stop  offset="0" style="stop-color:#FFD3BF"/>
						<stop  offset="1" style="stop-color:#FFB7A8"/>
					</linearGradient>
					<path class="st44" d="M232.7,206.3c0,0,0.3-1.8,0.3-2s-0.3-0.7-0.3-0.7s-0.3,0.3-0.4,0.8c0,0.4,0.2,2.3,0.2,2.3L232.7,206.3z"
						/>
				</g>
				<path class="st4" d="M242.5,212c0,0-0.8-1.6-1-1.9s-0.4-0.5-0.8-0.4c-0.4,0.1-2.9,0.9-3.9,1.6c-1,0.7-1.2,1-1.2,1.2
					c0,0.3,0.9,2.6,0.9,2.6L242.5,212z"/>
				<path class="st2" d="M257,202.9c1.7-1,7.4,0,8.2,6.4c0.8,6.4-2.8,11.9-5.6,16.3c-2.8,4.4-4.8,6.8-6.1,8c-1.2,1.1-5.6,2.5-7.2,2
					c-1.5-0.5-3.2-3.8-4.1-6c-0.9-2.2-5.7-13-5.8-13.4s-0.1-0.9,0-1.3c0.1-0.4,2.4-2.5,6.1-3.3c0,0,0.7,0.2,0.9,0.4
					c0.2,0.3,0.1,0.7,0.3,1.3c0.8,1.9,4.6,8.3,4.6,8.3s6.3-14.8,7-16.3C256.1,203.8,256.2,203.4,257,202.9z"/>
			</g>
		</g>
	</g>
</g>
<g id="DESIGNED_BY_FREEPIK">
</g>
</svg>
